<svg width="49" height="50" viewBox="0 0 49 50" fill="none" xmlns="http://www.w3.org/2000/svg">
<path fill-rule="evenodd" clip-rule="evenodd" d="M25.183 12.8223L26.1913 18.7353C26.5266 20.7018 23.7743 21.5224 22.978 19.6933L23.8801 19.3006C24.2125 20.0641 25.3614 19.7216 25.2215 18.9007L24.2132 12.9876L25.183 12.8223Z" fill="#083B4A"/>
<path fill-rule="evenodd" clip-rule="evenodd" d="M16.5851 11.4824C18.28 10.5819 20.3219 10.6307 21.9719 11.6113C22.6694 12.0258 23.4658 12.2446 24.2772 12.2446H24.663V13.2284H24.2772C23.2889 13.2284 22.3189 12.9619 21.4693 12.457C20.1147 11.652 18.4382 11.6119 17.0467 12.3513L15.5041 13.1709L15.0425 12.3021L16.5851 11.4824Z" fill="#083B4A"/>
<path fill-rule="evenodd" clip-rule="evenodd" d="M32.7406 11.4824C31.0457 10.5819 29.0037 10.6307 27.3538 11.6113C26.6563 12.0258 25.8599 12.2446 25.0485 12.2446H24.6627V13.2284H25.0485C26.0368 13.2284 27.0068 12.9619 27.8564 12.457C29.211 11.652 30.8875 11.6119 32.279 12.3513L33.8216 13.1709L34.2832 12.3021L32.7406 11.4824Z" fill="#083B4A"/>
<path fill-rule="evenodd" clip-rule="evenodd" d="M22.0279 30.0656L20.8989 29.5461L21.3102 28.6523L22.4392 29.1719C23.9345 29.8601 25.6582 29.8492 27.1447 29.1421L28.1686 28.6551L28.5912 29.5436L27.5673 30.0306C25.8173 30.8629 23.7882 30.8758 22.0279 30.0656Z" fill="#083B4A"/>
<path fill-rule="evenodd" clip-rule="evenodd" d="M32.9889 22.1074C33.4643 20.4374 35.4713 19.6363 37.613 20.4336C39.2472 21.042 40.1634 22.9095 39.9135 24.7375C39.6105 26.9544 37.5017 28.5138 35.2293 28.2349C32.9998 27.9613 32.0105 26.8952 30.7859 25.5755C30.4133 25.174 30.019 24.7491 29.5613 24.3158C28.8083 23.603 28.1398 23.0114 27.3801 22.6061C26.6042 22.1922 25.7588 21.9849 24.6611 21.9849V22.9687C25.6204 22.9687 26.3028 23.1465 26.9171 23.4742C27.5476 23.8105 28.1316 24.3171 28.885 25.0303C29.2569 25.3824 29.6023 25.7569 29.9484 26.1321C31.2163 27.5067 32.4922 28.8902 35.1095 29.2114C37.8845 29.552 40.5081 27.6517 40.8883 24.8708C41.1863 22.6907 40.1133 20.3146 37.9563 19.5116C35.4996 18.5971 32.7337 19.4106 32.0427 21.838C31.8381 22.5565 31.8082 23.2359 31.9928 23.8771C32.1773 24.5185 32.5638 25.078 33.1191 25.5778C33.5936 26.0048 34.3909 26.4306 35.252 26.5042C36.1495 26.5808 37.1132 26.269 37.7882 25.2283C38.5136 24.11 38.0878 22.9144 37.3241 22.3025C36.9415 21.9961 36.4442 21.8083 35.9259 21.8648C35.3922 21.923 34.9068 22.2327 34.5593 22.7865L35.3927 23.3094C35.6016 22.9765 35.8356 22.8643 36.0325 22.8428C36.2449 22.8197 36.4895 22.8946 36.7089 23.0703C37.149 23.423 37.3665 24.0705 36.9628 24.6929C36.5087 25.393 35.9159 25.5734 35.3357 25.5239C34.719 25.4712 34.1172 25.1524 33.7772 24.8465C33.326 24.4404 33.0609 24.0314 32.9382 23.6051C32.8155 23.1787 32.8227 22.6913 32.9889 22.1074Z" fill="#083B4A"/>
<path fill-rule="evenodd" clip-rule="evenodd" d="M16.3368 22.1074C15.8614 20.4374 13.8544 19.6363 11.7127 20.4336C10.0785 21.042 9.16228 22.9095 9.41217 24.7375C9.71522 26.9544 11.8239 28.5138 14.0963 28.2349C16.3259 27.9613 17.3152 26.8952 18.5398 25.5755C18.9123 25.174 19.3067 24.7491 19.7644 24.3158C20.5174 23.603 21.1859 23.0114 21.9456 22.6061C22.7215 22.1922 23.5669 21.9849 24.6646 21.9849V22.9687C23.7053 22.9687 23.0229 23.1465 22.4086 23.4742C21.7781 23.8105 21.1941 24.3171 20.4407 25.0303C20.0688 25.3824 19.7233 25.7569 19.3773 26.1321C18.1094 27.5067 16.8334 28.8902 14.2162 29.2114C11.4412 29.552 8.81756 27.6517 8.4374 24.8708C8.13939 22.6907 9.21243 20.3146 11.3694 19.5116C13.8261 18.5971 16.592 19.4106 17.283 21.838C17.4875 22.5565 17.5175 23.2359 17.3329 23.8771C17.1483 24.5185 16.7619 25.078 16.2066 25.5778C15.7321 26.0048 14.9348 26.4306 14.0737 26.5042C13.1762 26.5808 12.2125 26.269 11.5375 25.2283C10.8121 24.11 11.2379 22.9144 12.0016 22.3025C12.3841 21.9961 12.8815 21.8083 13.3998 21.8648C13.9335 21.923 14.4188 22.2327 14.7664 22.7865L13.933 23.3094C13.7241 22.9765 13.4901 22.8643 13.2932 22.8428C13.0808 22.8197 12.8362 22.8946 12.6168 23.0703C12.1766 23.423 11.9592 24.0705 12.3629 24.6929C12.817 25.393 13.4098 25.5734 13.99 25.5239C14.6067 25.4712 15.2085 25.1524 15.5484 24.8465C15.9996 24.4404 16.2647 24.0314 16.3874 23.6051C16.5101 23.1787 16.503 22.6913 16.3368 22.1074Z" fill="#083B4A"/>
<path fill-rule="evenodd" clip-rule="evenodd" d="M40.2221 28.2021C40.2178 28.8463 39.9942 29.4587 39.7435 29.9329C39.2573 30.8527 38.341 31.5022 37.2332 31.8249C36.1256 32.1477 34.8667 32.13 33.7616 31.7531C32.5352 31.335 31.7737 30.5971 31.1477 29.6805C30.8303 29.2156 30.5504 28.7086 30.2602 28.1678C30.2221 28.0968 30.1838 28.0252 30.1452 27.953C29.8934 27.482 29.6297 26.9887 29.3333 26.505C28.7813 25.6043 28.1439 24.7239 27.3886 24.0654C26.6277 23.402 25.7241 22.9449 24.657 22.9449L24.657 23.9287C25.4203 23.9287 26.1032 24.25 26.7421 24.807C27.3867 25.369 27.9625 26.1512 28.4944 27.0191C28.7745 27.4762 29.0235 27.9417 29.2763 28.4143C29.3151 28.487 29.3541 28.5599 29.3933 28.6329C29.6838 29.1744 29.9853 29.7228 30.3353 30.2353C31.0443 31.2736 31.9623 32.179 33.4441 32.6843C34.7454 33.1281 36.2114 33.1474 37.5084 32.7695C38.8053 32.3916 39.9736 31.6028 40.6133 30.3927C40.9071 29.837 41.2002 29.0657 41.2059 28.2085C41.2116 27.3343 40.9169 26.397 40.0784 25.549L39.3788 26.2407C40.0238 26.893 40.2262 27.5748 40.2221 28.2021Z" fill="#083B4A"/>
<path fill-rule="evenodd" clip-rule="evenodd" d="M9.14464 28.2021C9.14887 28.8463 9.3725 29.4587 9.62316 29.9329C10.1094 30.8527 11.0257 31.5022 12.1335 31.8249C13.2411 32.1477 14.5 32.13 15.6051 31.7531C16.8315 31.335 17.593 30.5971 18.219 29.6805C18.5364 29.2156 18.8163 28.7086 19.1065 28.1678C19.1446 28.0968 19.1829 28.0252 19.2215 27.953C19.4733 27.482 19.737 26.9887 20.0334 26.505C20.5854 25.6043 21.2228 24.7239 21.9781 24.0654C22.739 23.402 23.6426 22.9449 24.7097 22.9449L24.7097 23.9287C23.9464 23.9287 23.2635 24.25 22.6246 24.807C21.98 25.369 21.4042 26.1512 20.8723 27.0191C20.5922 27.4762 20.3432 27.9417 20.0904 28.4143C20.0516 28.487 20.0126 28.5599 19.9734 28.6329C19.6829 29.1744 19.3814 29.7228 19.0314 30.2353C18.3224 31.2736 17.4044 32.179 15.9226 32.6843C14.6213 33.1281 13.1553 33.1474 11.8583 32.7695C10.5614 32.3916 9.39313 31.6028 8.75339 30.3927C8.45964 29.837 8.16645 29.0657 8.16083 28.2085C8.15509 27.3343 8.44982 26.397 9.28831 25.549L9.98791 26.2407C9.34292 26.893 9.14053 27.5748 9.14464 28.2021Z" fill="#083B4A"/>
<path fill-rule="evenodd" clip-rule="evenodd" d="M39.0812 33.3405C38.8537 34.0358 38.3689 34.6167 37.9557 34.9149C36.1634 36.2084 33.5421 36.2219 31.597 34.9063C30.5237 34.1804 29.983 33.2683 29.6201 32.2194C29.436 31.6873 29.2993 31.1246 29.1615 30.5265C29.1434 30.448 29.1253 30.3688 29.107 30.2891C28.9879 29.7684 28.8631 29.2231 28.7043 28.6786C28.3994 27.6332 27.8521 26.4716 27.1766 25.5611C26.8384 25.1055 26.4567 24.6971 26.0424 24.3988C25.6291 24.1012 25.1555 23.8939 24.6461 23.8939L24.6461 24.8777C24.8836 24.8777 25.1592 24.9752 25.4676 25.1972C25.7749 25.4185 26.0874 25.7444 26.3865 26.1474C26.9852 26.9543 27.484 28.008 27.7598 28.954C27.9099 29.4686 28.0277 29.9832 28.1473 30.5057C28.1657 30.586 28.1841 30.6666 28.2028 30.7474C28.3407 31.3462 28.4874 31.9545 28.6903 32.541C29.1014 33.7293 29.749 34.8442 31.0458 35.7213C33.3129 37.2547 36.3852 37.2616 38.5314 35.7126C39.1011 35.3015 39.7195 34.5535 40.0162 33.6464C40.3202 32.7174 40.2875 31.6086 39.5124 30.56L38.7212 31.1449C39.2794 31.8999 39.3015 32.6671 39.0812 33.3405Z" fill="#083B4A"/>
<path fill-rule="evenodd" clip-rule="evenodd" d="M10.245 33.3405C10.4725 34.0358 10.9573 34.6167 11.3705 34.9149C13.1627 36.2084 15.7841 36.2219 17.7292 34.9063C18.8024 34.1804 19.3432 33.2683 19.7061 32.2194C19.8902 31.6873 20.0269 31.1246 20.1647 30.5265C20.1828 30.448 20.2009 30.3688 20.2191 30.2891C20.3383 29.7684 20.463 29.2231 20.6219 28.6786C20.9267 27.6332 21.474 26.4716 22.1496 25.5611C22.4877 25.1055 22.8695 24.6971 23.2838 24.3988C23.6971 24.1012 24.1707 23.8939 24.6801 23.8939L24.6801 24.8777C24.4425 24.8777 24.167 24.9752 23.8586 25.1972C23.5513 25.4185 23.2388 25.7444 22.9397 26.1474C22.341 26.9543 21.8422 28.008 21.5663 28.954C21.4163 29.4686 21.2985 29.9832 21.1789 30.5057C21.1605 30.586 21.142 30.6666 21.1234 30.7474C20.9855 31.3462 20.8388 31.9545 20.6359 32.541C20.2248 33.7293 19.5772 34.8442 18.2804 35.7213C16.0132 37.2547 12.9409 37.2616 10.7947 35.7126C10.2251 35.3015 9.6067 34.5535 9.30994 33.6464C9.00601 32.7174 9.03868 31.6086 9.81382 30.56L10.605 31.1449C10.0468 31.8999 10.0247 32.6671 10.245 33.3405Z" fill="#083B4A"/>
<circle cx="24.5986" cy="24.0957" r="23.0957" stroke="#083B4A"/>
</svg>
