<svg width="326" height="362" viewBox="0 0 326 362" fill="none" xmlns="http://www.w3.org/2000/svg">
<path d="M255.353 64.1287L252.674 56.3099C248.264 43.4419 249.823 29.2778 256.925 17.6766V17.6766C261.865 9.60691 270.005 4.01993 279.311 2.31135L280.987 2.00368C289.981 0.352415 299.268 2.0796 307.067 6.85398L308.64 7.81688C316.669 12.7321 322.278 20.7791 324.112 30.0128V30.0128C325.765 38.3298 324.223 46.9639 319.796 54.1959L317.846 57.3808C311.475 67.7879 300.509 74.5183 288.345 75.4869L282.633 75.9418C278.049 76.3068 273.711 78.16 270.278 81.2191V81.2191C259.717 90.6293 261.233 107.563 273.297 114.948L301.63 132.294C306.096 135.028 311.933 133.623 314.667 129.158V129.158C317.401 124.692 315.997 118.855 311.531 116.121L205.737 51.3556C201.271 48.6217 195.434 50.0257 192.7 54.4915V54.4915C189.966 58.9574 191.37 64.794 195.836 67.528L216.312 80.0631C231.882 89.5945 236.949 109.839 227.706 125.582L103.527 337.08M92.3126 356.179L103.527 337.08M103.527 337.08L52.36 278.337C44.3541 269.146 41.2472 256.67 44.0076 244.797L49.0576 223.077C55.5604 195.108 23.086 174.665 0.67832 192.621V192.621M103.527 337.08L179.139 355.749C190.57 358.571 202.662 355.858 211.79 348.422L230.217 333.411C251.373 316.177 282.459 335.028 276.956 361.754V361.754M0.67832 192.621L4.18541 189.583C35.2846 162.641 83.8868 179.77 91.2203 220.258V220.258L71.9772 113.986L0.67832 192.621ZM276.956 361.754L280.219 349.536C289.007 316.634 255.802 288.196 224.642 301.937V301.937L320.627 266.206L276.956 361.754Z" stroke="#083B4A"/>
</svg>
