<svg width="1441" height="734" viewBox="0 0 1441 734" fill="none" xmlns="http://www.w3.org/2000/svg">
<circle cx="1158.09" cy="352.508" r="77.0062" stroke="#083B4A" stroke-width="0.829582"/>
<circle cx="1158.09" cy="352.508" r="87.6338" stroke="#083B4A" stroke-width="0.829582"/>
<path d="M1168.78 162.966L1149.02 136.429C1148.73 136.033 1148.43 135.653 1148.13 135.29C1147.87 134.894 1147.59 134.498 1147.29 134.102H1147.24L1147.39 155.292C1147.39 156.117 1147.39 156.942 1147.39 157.767C1147.39 158.593 1147.36 159.401 1147.29 160.193C1147.88 160.16 1148.48 160.127 1149.07 160.094C1149.67 160.061 1150.26 160.028 1150.86 159.995V162.174H1141.79V160.54C1142.82 160.54 1143.54 160.325 1143.97 159.896C1144.44 159.434 1144.73 158.906 1144.86 158.312C1145 157.685 1145.06 157.124 1145.06 156.629L1145.11 132.815C1145.11 132.253 1145.11 131.692 1145.11 131.131C1145.11 130.57 1145.11 130.025 1145.11 129.497C1144.58 129.53 1144.04 129.563 1143.48 129.596C1142.92 129.629 1142.36 129.662 1141.79 129.695V127.517H1147.69L1166.25 152.371C1166.68 152.932 1167.09 153.493 1167.49 154.054C1167.92 154.615 1168.35 155.176 1168.78 155.738H1168.83L1168.88 133.062C1168.88 132.402 1168.89 131.775 1168.93 131.181C1168.96 130.554 1168.99 129.992 1169.03 129.497C1168.43 129.53 1167.84 129.563 1167.24 129.596C1166.65 129.629 1166.05 129.662 1165.46 129.695V127.517H1174.57V129.151C1173.35 129.184 1172.51 129.464 1172.05 129.992C1171.58 130.521 1171.34 131.23 1171.3 132.121C1171.27 133.013 1171.25 134.052 1171.25 135.24L1171.15 162.966H1168.78Z" fill="#083B4A"/>
<path d="M1242.61 255.508L1243.02 255.099C1243.3 255.38 1243.56 255.508 1243.81 255.48C1244.06 255.444 1244.32 255.312 1244.58 255.085C1244.86 254.85 1245.16 254.568 1245.48 254.241L1248.6 251.151C1248.75 251.006 1248.89 250.86 1249.04 250.715C1249.19 250.579 1249.36 250.447 1249.54 250.32C1249.37 250.166 1249.2 250.012 1249.02 249.858C1248.86 249.712 1248.69 249.563 1248.52 249.408L1249.09 248.836C1249.49 249.236 1249.81 249.517 1250.04 249.681C1250.29 249.853 1250.49 249.962 1250.64 250.007C1250.8 250.053 1250.94 250.075 1251.07 250.075L1251.46 250.47C1251.41 250.543 1251.34 250.62 1251.26 250.702C1251.18 250.792 1251.1 250.892 1251.01 251.001C1250.92 251.11 1250.81 251.228 1250.68 251.355C1251.06 251.382 1251.43 251.446 1251.8 251.546C1252.18 251.655 1252.54 251.8 1252.89 251.981C1253.24 252.172 1253.55 252.399 1253.82 252.662C1254.6 253.452 1254.93 254.278 1254.8 255.14C1254.67 255.993 1254.08 256.942 1253.04 257.985L1250.51 260.518C1250.33 260.699 1250.16 260.858 1250 260.994C1249.87 261.13 1249.71 261.262 1249.53 261.389C1249.68 261.525 1249.83 261.661 1249.96 261.797C1250.12 261.934 1250.27 262.07 1250.43 262.206L1249.87 262.764L1247.09 259.987L1247.5 259.578C1247.78 259.86 1248.04 259.987 1248.29 259.959C1248.54 259.923 1248.8 259.792 1249.06 259.565C1249.34 259.329 1249.64 259.047 1249.96 258.721L1251.87 256.815C1252.64 256.025 1253.1 255.303 1253.24 254.65C1253.4 254.005 1253.2 253.42 1252.66 252.894C1252.32 252.576 1251.91 252.34 1251.43 252.186C1250.96 252.04 1250.49 251.99 1250.03 252.036C1249.97 252.118 1249.89 252.204 1249.8 252.295C1249.71 252.385 1249.61 252.481 1249.51 252.58L1246.03 256.039C1245.85 256.22 1245.68 256.379 1245.52 256.515C1245.39 256.651 1245.23 256.783 1245.05 256.91C1245.2 257.046 1245.35 257.182 1245.48 257.318C1245.64 257.454 1245.79 257.591 1245.95 257.727L1245.39 258.285L1242.61 255.508ZM1253.96 267.29C1253.33 266.664 1252.91 265.951 1252.69 265.152C1252.49 264.354 1252.51 263.541 1252.76 262.715C1253.01 261.88 1253.51 261.095 1254.24 260.36C1254.88 259.725 1255.61 259.271 1256.45 258.999C1257.29 258.735 1258.14 258.695 1258.99 258.876C1259.86 259.049 1260.63 259.475 1261.31 260.156C1261.69 260.537 1261.98 260.955 1262.18 261.408C1262.4 261.862 1262.51 262.343 1262.51 262.851C1262.52 263.351 1262.4 263.864 1262.17 264.39C1261.94 264.907 1261.57 265.42 1261.06 265.928L1256.19 261.218C1255.5 261.908 1254.96 262.588 1254.58 263.26C1254.22 263.932 1254.06 264.581 1254.11 265.207C1254.16 265.824 1254.45 266.396 1254.98 266.922C1255.26 267.204 1255.6 267.44 1255.99 267.63C1256.39 267.83 1256.8 267.971 1257.22 268.052C1257.65 268.134 1258.05 268.148 1258.41 268.093L1258.46 268.692C1257.84 268.828 1257.24 268.837 1256.67 268.719C1256.09 268.601 1255.58 268.411 1255.11 268.148C1254.65 267.884 1254.27 267.598 1253.96 267.29ZM1256.8 260.687L1260.27 264.158C1260.6 263.832 1260.86 263.469 1261.06 263.069C1261.28 262.67 1261.38 262.266 1261.35 261.858C1261.33 261.44 1261.15 261.054 1260.79 260.7C1260.27 260.174 1259.67 259.893 1258.99 259.856C1258.34 259.82 1257.61 260.097 1256.8 260.687Z" fill="#083B4A"/>
<path d="M1060.06 270.857L1059.65 270.448C1059.93 270.167 1060.06 269.904 1060.03 269.659C1060 269.405 1059.86 269.146 1059.64 268.883C1059.4 268.61 1059.12 268.311 1058.79 267.984L1055.7 264.866C1055.56 264.721 1055.41 264.576 1055.27 264.431C1055.13 264.277 1055 264.109 1054.87 263.927C1054.72 264.1 1054.56 264.272 1054.41 264.444C1054.26 264.608 1054.11 264.776 1053.96 264.948L1053.39 264.376C1053.79 263.977 1054.07 263.659 1054.23 263.423C1054.41 263.178 1054.51 262.979 1054.56 262.824C1054.6 262.67 1054.63 262.529 1054.63 262.402L1055.02 262.007C1055.09 262.062 1055.17 262.13 1055.25 262.212C1055.34 262.284 1055.44 262.366 1055.55 262.457C1055.66 262.547 1055.78 262.656 1055.91 262.783C1055.93 262.411 1056 262.039 1056.1 261.667C1056.21 261.286 1056.35 260.923 1056.53 260.578C1056.72 260.224 1056.95 259.915 1057.21 259.652C1058 258.862 1058.83 258.536 1059.69 258.672C1060.55 258.799 1061.49 259.384 1062.54 260.428L1065.07 262.96C1065.25 263.142 1065.41 263.31 1065.55 263.464C1065.68 263.6 1065.81 263.759 1065.94 263.941C1066.08 263.786 1066.21 263.641 1066.35 263.505C1066.49 263.351 1066.62 263.196 1066.76 263.042L1067.32 263.6L1064.54 266.378L1064.13 265.969C1064.41 265.688 1064.54 265.425 1064.51 265.18C1064.48 264.925 1064.34 264.667 1064.12 264.404C1063.88 264.131 1063.6 263.832 1063.27 263.505L1061.37 261.599C1060.58 260.828 1059.86 260.369 1059.2 260.224C1058.56 260.07 1057.97 260.265 1057.45 260.809C1057.13 261.145 1056.89 261.554 1056.74 262.035C1056.59 262.507 1056.54 262.974 1056.59 263.437C1056.67 263.5 1056.76 263.578 1056.85 263.668C1056.94 263.759 1057.03 263.854 1057.13 263.954L1060.59 267.44C1060.77 267.621 1060.93 267.789 1061.07 267.943C1061.2 268.079 1061.33 268.238 1061.46 268.42C1061.6 268.266 1061.73 268.12 1061.87 267.984C1062.01 267.83 1062.14 267.676 1062.28 267.521L1062.84 268.079L1060.06 270.857ZM1070.49 260.512L1063.47 257.068C1063.22 256.941 1063 256.836 1062.81 256.755C1062.63 256.664 1062.47 256.582 1062.34 256.51C1062.22 256.437 1062.11 256.373 1062.02 256.319L1061.34 257.081L1060.78 256.523L1063.67 253.637L1064.07 254.045C1063.67 254.463 1063.59 254.83 1063.81 255.148C1064.04 255.448 1064.45 255.743 1065.03 256.033L1067.56 257.313C1067.85 257.458 1068.14 257.608 1068.44 257.762C1068.73 257.907 1069.02 258.053 1069.32 258.198C1069.15 257.871 1068.99 257.544 1068.83 257.218C1068.66 256.873 1068.49 256.532 1068.32 256.196L1065.93 251.377L1066.48 250.819L1071.82 253.406C1072.09 253.533 1072.37 253.664 1072.65 253.8C1072.93 253.936 1073.21 254.073 1073.49 254.209C1073.37 253.936 1073.24 253.673 1073.11 253.419C1072.99 253.147 1072.85 252.879 1072.72 252.616L1071.03 249.131C1070.91 248.885 1070.8 248.65 1070.7 248.423C1070.6 248.196 1070.54 247.991 1070.53 247.81L1069.78 248.64L1069.22 248.082L1071.59 245.713L1072 246.122C1071.77 246.367 1071.61 246.594 1071.51 246.802C1071.42 247.002 1071.37 247.197 1071.36 247.388C1071.35 247.579 1071.38 247.769 1071.44 247.96C1071.5 248.15 1071.59 248.355 1071.7 248.572L1075.1 255.897L1074.56 256.442L1069.55 254.018C1069.33 253.909 1069.12 253.805 1068.91 253.705C1068.69 253.596 1068.48 253.492 1068.27 253.392C1068.05 253.283 1067.84 253.179 1067.63 253.079C1067.73 253.288 1067.83 253.501 1067.94 253.719C1068.04 253.927 1068.14 254.141 1068.25 254.359C1068.35 254.567 1068.46 254.781 1068.57 254.998L1071 259.995L1070.49 260.512Z" fill="#083B4A"/>
<path d="M1254.29 456.434C1253.84 456.888 1253.37 457.228 1252.89 457.455C1252.42 457.691 1251.99 457.845 1251.61 457.918L1252.14 458.34L1251.57 458.912L1249.15 456.652L1249.57 456.229C1249.96 456.583 1250.4 456.815 1250.89 456.924C1251.37 457.024 1251.84 457.006 1252.31 456.869C1252.77 456.733 1253.17 456.493 1253.52 456.148C1253.75 455.912 1253.95 455.644 1254.1 455.345C1254.25 455.036 1254.32 454.727 1254.32 454.419C1254.31 454.101 1254.19 453.82 1253.94 453.575C1253.69 453.321 1253.4 453.189 1253.08 453.18C1252.77 453.153 1252.42 453.198 1252.05 453.316C1251.68 453.434 1251.29 453.579 1250.9 453.752C1250.52 453.915 1250.14 454.074 1249.75 454.228C1249.36 454.382 1248.96 454.496 1248.56 454.569C1248.17 454.632 1247.79 454.614 1247.42 454.514C1247.05 454.414 1246.69 454.192 1246.34 453.847C1246.15 453.656 1245.98 453.411 1245.83 453.112C1245.67 452.812 1245.58 452.476 1245.55 452.104C1245.52 451.723 1245.59 451.319 1245.76 450.893C1245.92 450.457 1246.23 450.008 1246.7 449.545C1246.94 449.3 1247.26 449.068 1247.64 448.85C1248.02 448.633 1248.46 448.496 1248.97 448.442L1248.43 447.952L1249 447.38L1251.38 449.763L1250.95 450.198C1250.61 449.899 1250.23 449.667 1249.82 449.504C1249.39 449.331 1248.96 449.272 1248.52 449.327C1248.08 449.372 1247.66 449.59 1247.27 449.98C1246.85 450.398 1246.63 450.829 1246.6 451.274C1246.58 451.719 1246.7 452.077 1246.97 452.349C1247.25 452.631 1247.57 452.78 1247.94 452.799C1248.3 452.799 1248.69 452.726 1249.11 452.581C1249.52 452.436 1249.96 452.268 1250.4 452.077C1250.89 451.877 1251.39 451.7 1251.88 451.546C1252.38 451.392 1252.87 451.342 1253.34 451.396C1253.8 451.442 1254.24 451.669 1254.65 452.077C1255.1 452.531 1255.36 453.026 1255.42 453.561C1255.5 454.087 1255.42 454.6 1255.19 455.099C1254.98 455.599 1254.68 456.043 1254.29 456.434ZM1261.1 449.628C1260.47 450.254 1259.76 450.676 1258.96 450.894C1258.16 451.094 1257.35 451.071 1256.53 450.826C1255.69 450.572 1254.91 450.077 1254.17 449.342C1253.54 448.707 1253.08 447.972 1252.81 447.136C1252.55 446.292 1252.5 445.444 1252.69 444.591C1252.86 443.728 1253.29 442.957 1253.97 442.276C1254.35 441.895 1254.77 441.604 1255.22 441.405C1255.67 441.187 1256.15 441.078 1256.66 441.078C1257.16 441.069 1257.67 441.182 1258.2 441.418C1258.72 441.645 1259.23 442.013 1259.74 442.521L1255.03 447.395C1255.72 448.085 1256.4 448.62 1257.07 449.002C1257.74 449.365 1258.39 449.524 1259.02 449.478C1259.63 449.424 1260.21 449.133 1260.73 448.607C1261.01 448.325 1261.25 447.99 1261.44 447.599C1261.64 447.2 1261.78 446.787 1261.86 446.36C1261.94 445.934 1261.96 445.539 1261.9 445.176L1262.5 445.122C1262.64 445.748 1262.65 446.347 1262.53 446.919C1262.41 447.49 1262.22 448.008 1261.96 448.471C1261.69 448.934 1261.41 449.319 1261.1 449.628ZM1254.5 446.783L1257.97 443.311C1257.64 442.984 1257.28 442.721 1256.88 442.521C1256.48 442.303 1256.08 442.208 1255.67 442.235C1255.25 442.253 1254.86 442.439 1254.51 442.793C1253.98 443.32 1253.7 443.919 1253.67 444.591C1253.63 445.244 1253.91 445.975 1254.5 446.783Z" fill="#083B4A"/>
<path d="M1053.29 449.091C1052.84 448.637 1052.5 448.17 1052.27 447.689C1052.03 447.217 1051.88 446.79 1051.81 446.409L1051.38 446.94L1050.81 446.368L1053.07 443.945L1053.49 444.367C1053.14 444.757 1052.91 445.197 1052.8 445.688C1052.7 446.169 1052.72 446.641 1052.85 447.103C1052.99 447.566 1053.23 447.97 1053.58 448.315C1053.81 448.551 1054.08 448.746 1054.38 448.901C1054.69 449.046 1055 449.118 1055.31 449.118C1055.62 449.109 1055.9 448.982 1056.15 448.737C1056.4 448.483 1056.53 448.197 1056.54 447.879C1056.57 447.562 1056.53 447.217 1056.41 446.845C1056.29 446.473 1056.14 446.091 1055.97 445.701C1055.81 445.32 1055.65 444.934 1055.5 444.544C1055.34 444.154 1055.23 443.759 1055.16 443.359C1055.09 442.969 1055.11 442.588 1055.21 442.216C1055.31 441.844 1055.53 441.485 1055.88 441.14C1056.07 440.95 1056.31 440.777 1056.61 440.623C1056.91 440.469 1057.25 440.378 1057.62 440.351C1058 440.314 1058.4 440.382 1058.83 440.555C1059.27 440.718 1059.72 441.031 1060.18 441.494C1060.42 441.739 1060.66 442.052 1060.87 442.434C1061.09 442.815 1061.23 443.26 1061.28 443.768L1061.77 443.223L1062.34 443.795L1059.96 446.178L1059.53 445.742C1059.83 445.406 1060.06 445.03 1060.22 444.612C1060.39 444.185 1060.45 443.754 1060.4 443.319C1060.35 442.874 1060.13 442.456 1059.74 442.066C1059.33 441.649 1058.89 441.426 1058.45 441.399C1058.01 441.372 1057.65 441.494 1057.37 441.767C1057.09 442.048 1056.94 442.37 1056.93 442.733C1056.93 443.096 1057 443.487 1057.14 443.904C1057.29 444.322 1057.46 444.753 1057.65 445.197C1057.85 445.688 1058.02 446.182 1058.18 446.681C1058.33 447.181 1058.38 447.666 1058.33 448.138C1058.28 448.601 1058.06 449.037 1057.65 449.445C1057.19 449.899 1056.7 450.158 1056.16 450.221C1055.64 450.294 1055.12 450.217 1054.62 449.99C1054.13 449.781 1053.68 449.481 1053.29 449.091ZM1059.32 454.767L1062.76 447.755C1062.89 447.501 1063 447.279 1063.08 447.088C1063.17 446.907 1063.25 446.753 1063.32 446.625C1063.4 446.498 1063.46 446.389 1063.51 446.299L1062.75 445.618L1063.31 445.06L1066.2 447.946L1065.79 448.355C1065.37 447.955 1065 447.869 1064.68 448.096C1064.38 448.323 1064.09 448.727 1063.8 449.308L1062.52 451.84C1062.37 452.13 1062.22 452.425 1062.07 452.725C1061.92 453.015 1061.78 453.306 1061.63 453.596C1061.96 453.433 1062.29 453.269 1062.61 453.106C1062.96 452.943 1063.3 452.775 1063.64 452.602L1068.46 450.206L1069.01 450.764L1066.43 456.101C1066.3 456.373 1066.17 456.65 1066.03 456.932C1065.9 457.213 1065.76 457.494 1065.62 457.776C1065.9 457.649 1066.16 457.522 1066.41 457.395C1066.69 457.267 1066.95 457.136 1067.22 457L1070.7 455.312C1070.95 455.194 1071.18 455.085 1071.41 454.985C1071.64 454.885 1071.84 454.826 1072.02 454.808L1071.19 454.059L1071.75 453.501L1074.12 455.87L1073.71 456.278C1073.47 456.051 1073.24 455.888 1073.03 455.788C1072.83 455.697 1072.63 455.647 1072.44 455.638C1072.25 455.629 1072.06 455.656 1071.87 455.72C1071.68 455.783 1071.48 455.87 1071.26 455.979L1063.94 459.382L1063.39 458.838L1065.81 453.828C1065.92 453.61 1066.03 453.396 1066.13 453.188C1066.24 452.97 1066.34 452.757 1066.44 452.548C1066.55 452.33 1066.65 452.117 1066.75 451.908C1066.54 452.008 1066.33 452.112 1066.11 452.221C1065.9 452.321 1065.69 452.425 1065.47 452.534C1065.26 452.634 1065.05 452.738 1064.83 452.847L1059.84 455.284L1059.32 454.767Z" fill="#083B4A"/>
<path d="M1166.97 557.207C1166.87 555.623 1166.49 554.121 1165.83 552.702C1165.17 551.283 1164.21 550.127 1162.96 549.236C1161.7 548.345 1160.1 547.9 1158.16 547.9C1156.11 547.9 1154.54 548.477 1153.45 549.632C1152.36 550.788 1151.82 552.141 1151.82 553.692C1151.82 555.078 1152.21 556.25 1153.01 557.207C1153.8 558.132 1154.82 558.957 1156.08 559.683C1157.36 560.376 1158.72 561.053 1160.14 561.713C1161.39 562.274 1162.65 562.885 1163.9 563.545C1165.15 564.172 1166.29 564.898 1167.32 565.723C1168.34 566.548 1169.15 567.538 1169.74 568.694C1170.37 569.816 1170.68 571.169 1170.68 572.753C1170.68 574.569 1170.22 576.186 1169.3 577.605C1168.4 579.025 1167.1 580.147 1165.38 580.972C1163.67 581.764 1161.57 582.16 1159.1 582.16C1157.61 582.16 1156.08 581.946 1154.49 581.517C1152.91 581.088 1151.51 580.46 1150.28 579.635L1150.53 581.764H1147.96L1147.66 571.219H1149.59C1149.76 574.123 1150.76 576.335 1152.61 577.853C1154.46 579.338 1156.69 580.081 1159.29 580.081C1160.58 580.081 1161.77 579.85 1162.86 579.388C1163.95 578.893 1164.81 578.183 1165.43 577.259C1166.09 576.335 1166.42 575.212 1166.42 573.892C1166.42 572.407 1166.03 571.169 1165.24 570.179C1164.44 569.189 1163.42 568.331 1162.17 567.604C1160.91 566.878 1159.58 566.185 1158.16 565.525C1156.9 564.964 1155.66 564.37 1154.44 563.743C1153.22 563.116 1152.1 562.406 1151.08 561.614C1150.09 560.789 1149.28 559.815 1148.65 558.693C1148.06 557.57 1147.76 556.217 1147.76 554.633C1147.76 553.775 1147.91 552.851 1148.2 551.86C1148.5 550.87 1149.01 549.929 1149.74 549.038C1150.5 548.114 1151.52 547.371 1152.81 546.81C1154.13 546.216 1155.8 545.919 1157.81 545.919C1159.06 545.919 1160.47 546.101 1162.02 546.464C1163.6 546.794 1165.07 547.454 1166.42 548.444L1166.23 546.315H1168.75V557.207H1166.97Z" fill="#083B4A"/>
<path d="M1365.61 359.233C1365.61 357.78 1365.41 356.741 1365.02 356.114C1364.62 355.486 1364 355.107 1363.14 354.975C1362.28 354.843 1361.14 354.81 1359.72 354.876L1356.11 355.024V366.362C1356.11 367.253 1356.09 368.012 1356.06 368.639C1356.06 369.267 1356.02 369.795 1355.96 370.224L1365.41 370.075C1366.87 370.042 1368.12 369.811 1369.18 369.382C1370.23 368.92 1371.06 368.128 1371.65 367.006C1372.25 365.883 1372.54 364.349 1372.54 362.401H1374.23L1373.93 372.056H1348.38V370.422C1349.64 370.356 1350.5 370.075 1350.96 369.58C1351.42 369.052 1351.67 368.342 1351.7 367.451C1351.77 366.527 1351.8 365.487 1351.8 364.332V342.944C1351.8 342.284 1351.82 341.657 1351.85 341.063C1351.88 340.435 1351.92 339.874 1351.95 339.379C1351.35 339.412 1350.76 339.445 1350.17 339.478C1349.57 339.511 1348.98 339.544 1348.38 339.577V337.399H1372.2L1372.45 346.063H1370.81C1370.81 344.116 1370.51 342.647 1369.92 341.657C1369.33 340.633 1368.52 339.957 1367.49 339.627C1366.5 339.264 1365.38 339.099 1364.13 339.132L1359.87 339.231C1358.65 339.264 1357.77 339.495 1357.25 339.924C1356.72 340.353 1356.39 340.997 1356.26 341.855C1356.16 342.68 1356.11 343.769 1356.11 345.122V353.044L1365.41 353.093L1365.07 348.836H1367.25V359.233H1365.61Z" fill="#083B4A"/>
<path d="M928.221 372.551L919.359 346.212C918.798 344.462 918.352 343.092 918.022 342.102C917.692 341.079 917.445 340.204 917.28 339.478C916.817 339.511 916.355 339.528 915.893 339.528C915.431 339.528 914.969 339.544 914.507 339.577V337.399H926.538V339.033C924.623 339.132 923.468 339.561 923.072 340.32C922.709 341.079 922.792 342.449 923.32 344.429C923.881 346.608 924.491 348.572 925.152 350.321C925.812 352.07 926.455 353.952 927.082 355.965C927.545 357.45 928.007 358.82 928.469 360.074C928.964 361.329 929.459 362.731 929.954 364.283H930.053C930.218 363.722 930.383 363.127 930.548 362.5C930.746 361.873 930.944 361.263 931.142 360.668C931.34 360.074 931.522 359.53 931.687 359.035C931.852 358.506 931.984 358.077 932.083 357.747C933.007 354.81 933.915 351.971 934.806 349.232C935.73 346.459 936.539 344.033 937.232 341.954C937.925 339.841 938.404 338.29 938.668 337.3H940.252C940.549 338.389 940.978 339.775 941.539 341.459C942.1 343.142 942.695 344.908 943.322 346.756C943.949 348.605 944.526 350.354 945.055 352.004C945.616 353.655 946.061 354.975 946.391 355.965C946.853 357.45 947.332 358.919 947.827 360.371C948.355 361.824 948.834 363.325 949.263 364.877H949.411C949.708 363.92 950.022 362.896 950.352 361.807C950.715 360.718 951.078 359.612 951.441 358.49C952.299 356.047 952.993 354.001 953.521 352.351C954.082 350.7 954.527 349.331 954.857 348.241C955.221 347.152 955.518 346.212 955.749 345.419C956.013 344.594 956.277 343.802 956.541 343.043C956.739 342.482 956.953 341.888 957.184 341.261C957.448 340.6 957.746 339.99 958.076 339.429C957.415 339.462 956.755 339.495 956.095 339.528C955.435 339.528 954.775 339.544 954.115 339.577V337.399H964.165V339.033C963.043 339.165 962.152 339.412 961.492 339.775C960.865 340.138 960.304 340.815 959.808 341.805C959.313 342.795 958.719 344.314 958.026 346.36C956.508 350.849 955.023 355.272 953.57 359.629C952.151 363.953 950.666 368.26 949.114 372.551H947.629L940.104 351.064C939.806 350.205 939.509 349.364 939.212 348.539C938.948 347.713 938.668 346.888 938.371 346.063C938.107 346.888 937.826 347.713 937.529 348.539C937.265 349.364 937.001 350.189 936.737 351.014L929.657 372.551H928.221Z" fill="#083B4A"/>
<line x1="0.414791" y1="-0.414791" x2="39.5877" y2="-0.414791" transform="matrix(0.53912 0.842229 0.842229 -0.53912 1078.19 213.054)" stroke="#083B4A" stroke-width="0.829582" stroke-linecap="square"/>
<line x1="1237.93" y1="213.627" x2="1216.82" y2="246.619" stroke="#083B4A" stroke-width="0.829582" stroke-linecap="square"/>
<line x1="0.414791" y1="-0.414791" x2="39.5877" y2="-0.414791" transform="matrix(0.98176 0.190126 0.190126 -0.98176 1002.23 312.229)" stroke="#083B4A" stroke-width="0.829582" stroke-linecap="square"/>
<line x1="1313.45" y1="312.715" x2="1274.99" y2="320.162" stroke="#083B4A" stroke-width="0.829582" stroke-linecap="square"/>
<line x1="0.414791" y1="-0.414791" x2="39.5877" y2="-0.414791" transform="matrix(0.84324 -0.537537 -0.537537 -0.84324 1017.28 436.32)" stroke="#083B4A" stroke-width="0.829582" stroke-linecap="square"/>
<line x1="1298.16" y1="436.447" x2="1265.12" y2="415.39" stroke="#083B4A" stroke-width="0.829582" stroke-linecap="square"/>
<line x1="0.414791" y1="-0.414791" x2="39.5877" y2="-0.414791" transform="matrix(0.226566 -0.973996 -0.973996 -0.226566 1115.62 512.233)" stroke="#083B4A" stroke-width="0.829582" stroke-linecap="square"/>
<line x1="1199.89" y1="511.923" x2="1191.02" y2="473.769" stroke="#083B4A" stroke-width="0.829582" stroke-linecap="square"/>
<line x1="0.414791" y1="-0.414791" x2="39.5877" y2="-0.414791" transform="matrix(0.243307 0.969949 0.969949 -0.243307 1118.68 196.558)" stroke="#083B4A" stroke-width="0.829582" stroke-linecap="square"/>
<line x1="1197.64" y1="197.061" x2="1188.1" y2="235.057" stroke="#083B4A" stroke-width="0.829582" stroke-linecap="square"/>
<line x1="0.414791" y1="-0.414791" x2="39.5877" y2="-0.414791" transform="matrix(0.870338 0.492455 0.492455 -0.870338 1018.19 271.531)" stroke="#083B4A" stroke-width="0.829582" stroke-linecap="square"/>
<line x1="1297.67" y1="272.098" x2="1263.58" y2="291.388" stroke="#083B4A" stroke-width="0.829582" stroke-linecap="square"/>
<line x1="0.414791" y1="-0.414791" x2="39.5877" y2="-0.414791" transform="matrix(0.970405 -0.241485 -0.241485 -0.970405 1000.87 395.802)" stroke="#083B4A" stroke-width="0.829582" stroke-linecap="square"/>
<line x1="1314.64" y1="396.104" x2="1276.63" y2="386.644" stroke="#083B4A" stroke-width="0.829582" stroke-linecap="square"/>
<line x1="0.414791" y1="-0.414791" x2="39.5877" y2="-0.414791" transform="matrix(0.524535 -0.851389 -0.851389 -0.524535 1075.54 494.766)" stroke="#083B4A" stroke-width="0.829582" stroke-linecap="square"/>
<line x1="1239.9" y1="494.63" x2="1219.35" y2="461.279" stroke="#083B4A" stroke-width="0.829582" stroke-linecap="square"/>
<circle cx="1158.08" cy="353.686" r="150.662" stroke="#083B4A" stroke-width="0.829582"/>
<circle cx="1158.08" cy="354.71" r="122.845" stroke="#083B4A" stroke-width="0.829582"/>
<path d="M1186.24 325.196L1186.29 325.477L1186.57 325.529L1339.4 353.684L1186.57 381.839L1186.29 381.891L1186.24 382.172L1158.08 535.005L1129.93 382.172L1129.87 381.891L1129.59 381.839L976.761 353.684L1129.59 325.529L1129.87 325.477L1129.93 325.196L1158.08 172.363L1186.24 325.196Z" fill="white" stroke="#083B4A" stroke-width="0.829582"/>
<path d="M1158.08 170.073L1158.08 537.294" stroke="#083B4A" stroke-width="0.829582"/>
<rect width="19.0313" height="19.0313" transform="matrix(0.706571 0.707642 -0.706571 0.707642 1158.09 340.153)" fill="#083B4A"/>
<path d="M974.472 353.685L1341.69 353.685" stroke="#083B4A" stroke-width="0.829582"/>
<line x1="1018.27" y1="215.668" x2="1050.88" y2="248.28" stroke="#083B4A" stroke-width="0.829582"/>
<line x1="1297.53" y1="494.824" x2="1263.83" y2="461.13" stroke="#083B4A" stroke-width="0.829582"/>
<line x1="1265.1" y1="248.095" x2="1297.53" y2="215.667" stroke="#083B4A" stroke-width="0.829582"/>
<line x1="1052.12" y1="460.974" x2="1018.27" y2="494.821" stroke="#083B4A" stroke-width="0.829582"/>
</svg>
