<svg width="471" height="298" viewBox="0 0 471 298" fill="none" xmlns="http://www.w3.org/2000/svg">
<path d="M36.8515 73.6005C33.547 67.5467 28.455 63.7094 23.243 61.3765C17.2545 58.6961 13.0456 66.0048 14.6329 72.3709C17.7698 84.9518 15.5081 99.142 12.1996 109.981C10.518 115.49 14.4208 121.507 19.876 119.658C29.921 116.252 36.0193 108.562 38.5161 103.46C38.9018 102.672 39.3446 101.903 39.9727 101.291C47.3615 94.0856 55.6182 100.456 60.2205 106.286C61.4903 107.894 61.8887 110.025 61.2946 111.986C53.8925 136.418 19.3826 144.808 2.40345 145.932C0.681492 145.932 1.47338 145.932 3.96331 147.102C42.962 165.425 79.6164 146.712 91.7053 139.303C100.499 133.913 120.059 108.772 131.159 93.6027C133.029 91.0473 133.194 87.6301 131.474 84.9715C120.379 67.8231 96.1057 37.9463 68.6974 27.3827C53.8018 21.6417 39.961 21.2577 28.6909 23.1217C20.8636 24.4163 22.7143 33.7573 30.0475 36.7849C52.5333 46.0687 60.8856 67.2978 62.068 72.6185C63.0644 77.1024 53.0213 78.5696 44.7641 78.8465C41.3512 78.9609 38.4876 76.5978 36.8515 73.6005Z" stroke="#083B4A"/>
<path d="M162.792 216.024C159.487 209.971 154.395 206.133 149.183 203.8C143.195 201.12 138.986 208.429 140.573 214.795C143.71 227.376 141.448 241.566 138.14 252.405C136.458 257.914 140.361 263.931 145.816 262.081C155.861 258.676 161.96 250.986 164.456 245.884C164.842 245.096 165.285 244.327 165.913 243.714C173.302 236.509 181.559 242.88 186.161 248.71C187.431 250.318 187.829 252.449 187.235 254.41C179.833 278.842 145.323 287.232 128.344 288.356C126.622 288.356 127.414 288.356 129.904 289.526C168.902 307.849 205.557 289.136 217.646 281.726C226.439 276.337 246 251.196 257.1 236.027C258.969 233.471 259.134 230.054 257.414 227.395C246.319 210.247 222.046 180.37 194.638 169.807C179.742 164.066 165.901 163.681 154.631 165.546C146.804 166.84 148.655 176.181 155.988 179.209C178.474 188.493 186.826 209.722 188.008 215.042C189.005 219.526 178.962 220.993 170.704 221.27C167.292 221.385 164.428 219.022 162.792 216.024Z" stroke="#083B4A"/>
<path d="M373.286 135.066C369.981 129.013 364.889 125.175 359.677 122.842C353.689 120.162 349.48 127.471 351.067 133.837C354.204 146.418 351.942 160.608 348.634 171.447C346.952 176.956 350.855 182.973 356.31 181.123C366.355 177.718 372.453 170.028 374.95 164.926C375.336 164.138 375.779 163.369 376.407 162.756C383.796 155.551 392.052 161.922 396.655 167.752C397.924 169.36 398.323 171.491 397.729 173.452C390.327 197.884 355.817 206.274 338.838 207.398C337.116 207.398 337.907 207.398 340.397 208.568C379.396 226.891 416.051 208.178 428.139 200.768C436.933 195.379 456.494 170.238 467.593 155.069C469.463 152.513 469.628 149.096 467.908 146.437C456.813 129.289 432.54 99.4121 405.131 88.8485C390.236 83.1075 376.395 82.7235 365.125 84.5875C357.298 85.8821 359.148 95.2231 366.482 98.2508C388.967 107.535 397.32 128.764 398.502 134.084C399.499 138.568 389.455 140.035 381.198 140.312C377.785 140.427 374.922 138.064 373.286 135.066Z" stroke="#083B4A"/>
<circle cx="209.487" cy="113.633" r="12.0604" stroke="#083B4A"/>
<circle cx="134.21" cy="41.9873" r="7.95414" stroke="#083B4A"/>
<circle cx="275.874" cy="172.401" r="7.95414" stroke="#083B4A"/>
<circle cx="267.422" cy="205.689" r="5.0263" stroke="#083B4A"/>
<circle cx="154.034" cy="79.0556" r="5.0263" stroke="#083B4A"/>
<circle cx="172.12" cy="12.6971" r="12.0604" stroke="#083B4A"/>
<circle cx="285.509" cy="79.0545" r="12.0604" stroke="#083B4A"/>
</svg>
