<svg width="156" height="156" viewBox="0 0 156 156" fill="none" xmlns="http://www.w3.org/2000/svg">
<path d="M117.32 125.264L117.157 125.16L116.966 125.192C76.445 132.082 47.4966 127.502 28.6998 116.302C9.9259 105.116 1.21484 87.2899 1.21484 67.4991C1.21484 49.1979 8.85614 33.8591 22.3071 23.0849C35.7674 12.3033 55.0762 6.07031 78.4258 6.07031C102.728 6.07031 121.917 12.8842 135.026 25.0305C148.13 37.1728 155.215 54.6958 155.215 76.2324V76.3325V76.4336V76.5355V76.6383V76.7421V76.8467V76.9523V77.0587V77.166V77.2742V77.3833V77.4932V77.604V77.7157V77.8282V77.9416V78.0559V78.1709V78.2869V78.4036V78.5212V78.6396V78.7589V78.8789V78.9998V79.1215V79.244V79.3673V79.4914V79.6163V79.742V79.8684V79.9957V80.1237V80.2525V80.382V80.5124V80.6435V80.7753V80.9079V81.0412V81.1753V81.3101V81.4456V81.5819V81.7189V81.8566V81.995V82.1342V82.274V82.4146V82.5558V82.6978V82.8404V82.9837V83.1277V83.2724V83.4177V83.5637V83.7104V83.8577V84.0057V84.1543V84.3036V84.4535V84.6041V84.7553V84.9071V85.0595V85.2126V85.3662V85.5205V85.6754V85.8309V85.987V86.1437V86.301V86.4588V86.6173V86.7763V86.9359V87.096V87.2567V87.418V87.5798V87.7422V87.9051V88.0686V88.2326V88.3971V88.5622V88.7278V88.8939V89.0605V89.2276V89.3953V89.5634V89.732V89.9012V90.0708V90.2409V90.4115V90.5825V90.7541V90.926V91.0985V91.2714V91.4448V91.6186V91.7929V91.9676V92.1427V92.3183V92.4943V92.6707V92.8476V93.0248V93.2025V93.3806V93.5591V93.7379V93.9172V94.0969V94.2769V94.4573V94.6381V94.8193V95.0008V95.1827V95.365V95.5476V95.7305V95.9138V96.0975V96.2815V96.4658V96.6504V96.8354V97.0207V97.2063V97.3922V97.5784V97.7649V97.9517V98.1388V98.3262V98.5139V98.7019V98.8901V99.0786V99.2674V99.4564V99.6457V99.8352V100.025V100.215V100.405V100.596V100.787V100.978V101.169V101.36V101.552V101.744V101.936V102.128V102.32V102.513V102.706V102.899V103.092V103.285V103.479V103.673V103.867V104.061V104.255V104.449V104.644V104.838V105.033V105.228V105.423V105.618V105.813V106.009V106.204V106.4V106.595V106.791V106.987V107.183V107.379V107.575V107.771V107.968V108.164V108.36V108.557V108.753V108.95V109.146V109.343V109.54V109.737V109.933V110.13V110.327V110.524V110.72V110.917V111.114V111.311V111.508V111.704V111.901V112.098V112.295V112.491V112.688V112.885V113.081V113.278V113.474V113.671V113.867V114.063V114.26V114.456V114.652V114.848V115.044V115.24V115.435V115.631V115.827V116.022V116.217V116.413V116.608V116.803V116.997V117.192V117.387V117.581V117.775V117.97V118.163V118.357V118.551V118.744V118.938V119.131V119.324V119.516V119.709V119.901V120.094V120.286V120.477V120.669V120.86V121.051V121.242V121.433V121.623V121.813V122.003V122.193V122.382V122.572V122.761V122.949V123.138V123.326V123.514V123.701V123.888V124.075V124.262V124.448V124.635V124.82V125.006V125.191V125.376V125.56V125.744V125.928V126.112V126.295V126.478V126.66V126.842V127.024V127.205V127.386V127.567V127.747V127.927V128.107V128.286V128.464V128.643V128.821V128.998V129.175V129.352V129.528V129.704V129.879V130.054V130.229V130.403V130.577V130.75V130.922V131.095V131.267V131.438V131.609V131.779V131.949V132.118V132.287V132.456V132.624V132.791V132.958V133.124V133.29V133.456V133.62V133.785V133.949V134.112V134.274V134.437V134.598V134.759V134.92V135.08V135.239V135.398V135.556V135.714V135.871V136.027V136.183V136.338V136.493V136.647V136.8V136.953V137.105V137.257V137.408V137.558V137.707V137.856V138.005V138.153V138.3V138.446V138.592V138.737V138.881V139.025V139.168V139.31V139.452V139.593V139.733V139.873V140.011V140.15V140.287V140.424V140.56V140.695V140.829V140.963V141.096V141.228V141.36V141.491V141.621V141.75V141.878V142.006V142.133V142.259V142.384V142.509V142.633V142.756V142.878V142.999V143.12V143.239V143.358V143.476V143.594V143.71V143.826V143.94V144.054V144.167V144.279V144.391V144.501V144.611V144.719V144.827V144.934V145.04V145.145V145.25V145.353V145.455V145.557V145.658V145.757V145.856V145.954V146.051V146.147V146.242V146.336V146.429V146.521V146.613V146.703V146.792V146.881V146.968V147.055V147.14V147.224V147.308V147.39V147.472V147.552V147.632V147.71V147.788V147.864V147.939V148.014V148.087V148.159V148.231V148.301V148.37V148.438V148.505V148.571V148.636V148.7V148.762V148.824V148.885V148.944V149.002V149.06V149.116V149.171V149.225V149.278V149.329V149.38V149.429V149.478V149.516L117.32 125.264Z" stroke="#083B4A"/>
<path d="M57.3957 66.3492C57.3957 72.7624 52.3007 77.9445 46.0365 77.9445C39.7722 77.9445 34.6772 72.7624 34.6772 66.3492C34.6772 59.936 39.7722 54.7539 46.0365 54.7539C52.3007 54.7539 57.3957 59.936 57.3957 66.3492Z" stroke="#083B4A"/>
<path d="M93.861 66.3492C93.861 72.7624 88.7661 77.9445 82.5018 77.9445C76.2375 77.9445 71.1426 72.7624 71.1426 66.3492C71.1426 59.936 76.2375 54.7539 82.5018 54.7539C88.7661 54.7539 93.861 59.936 93.861 66.3492Z" stroke="#083B4A"/>
<path d="M130.327 66.3492C130.327 72.7624 125.232 77.9445 118.968 77.9445C112.703 77.9445 107.608 72.7624 107.608 66.3492C107.608 59.936 112.703 54.7539 118.968 54.7539C125.232 54.7539 130.327 59.936 130.327 66.3492Z" stroke="#083B4A"/>
</svg>
