<svg width="93" height="38" viewBox="0 0 93 38" fill="none" xmlns="http://www.w3.org/2000/svg">
<path fill-rule="evenodd" clip-rule="evenodd" d="M22.8103 3.9585L24.0801 11.4056C24.5024 13.8823 21.0361 14.9158 20.0332 12.6122L21.1693 12.1176C21.5879 13.0792 23.035 12.6478 22.8587 11.6139L21.5888 4.16677L22.8103 3.9585Z" fill="#11404F" stroke="#11404F"/>
<path fill-rule="evenodd" clip-rule="evenodd" d="M11.9818 2.27173C14.1165 1.13749 16.6882 1.19898 18.7662 2.43395C19.6447 2.95603 20.6477 3.23158 21.6696 3.23158H22.1555V4.47066H21.6696C20.4249 4.47066 19.2032 4.13503 18.1332 3.49912C16.4272 2.48521 14.3158 2.43473 12.5632 3.36593L10.6205 4.39822L10.0391 3.30401L11.9818 2.27173Z" fill="#11404F" stroke="#11404F"/>
<path fill-rule="evenodd" clip-rule="evenodd" d="M32.3287 2.27173C30.194 1.13749 27.6223 1.19898 25.5443 2.43395C24.6658 2.95603 23.6628 3.23158 22.6409 3.23158H22.155V4.47066H22.6409C23.8856 4.47066 25.1073 4.13503 26.1773 3.49912C27.8834 2.48521 29.9947 2.43473 31.7473 3.36593L33.6901 4.39822L34.2715 3.30401L32.3287 2.27173Z" fill="#11404F" stroke="#11404F"/>
<path fill-rule="evenodd" clip-rule="evenodd" d="M18.8359 25.675L17.4141 25.0206L17.9321 23.895L19.3539 24.5494C21.2372 25.4161 23.408 25.4023 25.2802 24.5119L26.5698 23.8985L27.102 25.0174L25.8124 25.6308C23.6085 26.6791 21.053 26.6953 18.8359 25.675Z" fill="#11404F" stroke="#11404F"/>
<path fill-rule="evenodd" clip-rule="evenodd" d="M32.6407 15.6544C33.2394 13.5511 35.7671 12.5422 38.4645 13.5464C40.5226 14.3125 41.6765 16.6646 41.3618 18.9669C40.9801 21.7589 38.3243 23.7229 35.4624 23.3716C32.6544 23.027 31.4085 21.6844 29.8661 20.0223C29.3969 19.5166 28.9003 18.9814 28.3239 18.4358C27.3755 17.538 26.5335 16.7929 25.5768 16.2825C24.5995 15.7612 23.5347 15.5001 22.1523 15.5001V16.7392C23.3605 16.7392 24.2199 16.9631 24.9935 17.3758C25.7877 17.7994 26.5232 18.4373 27.472 19.3356C27.9404 19.779 28.3755 20.2507 28.8113 20.7232C30.4081 22.4545 32.0152 24.1969 35.3114 24.6015C38.8064 25.0304 42.1107 22.6371 42.5895 19.1347C42.9648 16.3891 41.6134 13.3964 38.8968 12.3852C35.8028 11.2334 32.3192 12.2579 31.4489 15.3151C31.1914 16.22 31.1537 17.0756 31.3861 17.8833C31.6186 18.691 32.1053 19.3957 32.8046 20.0251C33.4022 20.5629 34.4064 21.0992 35.4909 21.1919C36.6213 21.2884 37.835 20.8956 38.6851 19.585C39.5987 18.1765 39.0624 16.6708 38.1006 15.9002C37.6188 15.5142 36.9924 15.2777 36.3396 15.3489C35.6674 15.4221 35.0562 15.8122 34.6185 16.5097L35.6681 17.1683C35.9312 16.749 36.2259 16.6077 36.4739 16.5806C36.7414 16.5515 37.0495 16.6458 37.3258 16.8672C37.8801 17.3113 38.154 18.1268 37.6456 18.9107C37.0736 19.7924 36.3271 20.0197 35.5963 19.9573C34.8196 19.8909 34.0617 19.4894 33.6335 19.1041C33.0653 18.5927 32.7314 18.0776 32.5769 17.5406C32.4223 17.0036 32.4313 16.3897 32.6407 15.6544Z" fill="#11404F" stroke="#11404F"/>
<path fill-rule="evenodd" clip-rule="evenodd" d="M11.6679 15.6544C11.0692 13.5511 8.54154 12.5422 5.8441 13.5464C3.78602 14.3125 2.63206 16.6646 2.94678 18.9669C3.32845 21.7589 5.98427 23.7229 8.84621 23.3716C11.6542 23.027 12.9001 21.6844 14.4425 20.0223C14.9117 19.5166 15.4083 18.9814 15.9847 18.4358C16.9331 17.538 17.7751 16.7929 18.7318 16.2825C19.7091 15.7612 20.7738 15.5001 22.1562 15.5001V16.7392C20.9481 16.7392 20.0887 16.9631 19.315 17.3758C18.5209 17.7994 17.7854 18.4373 16.8366 19.3356C16.3681 19.779 15.9331 20.2507 15.4973 20.7232C13.9005 22.4545 12.2934 24.1969 8.99716 24.6015C5.50224 25.0304 2.1979 22.6371 1.71911 19.1347C1.34379 16.3891 2.69522 13.3964 5.41182 12.3852C8.50581 11.2334 11.9894 12.2579 12.8596 15.3151C13.1172 16.22 13.1549 17.0756 12.9225 17.8833C12.69 18.691 12.2033 19.3957 11.5039 20.0251C10.9064 20.5629 9.90222 21.0992 8.81771 21.1919C7.68731 21.2884 6.47363 20.8956 5.62348 19.585C4.70987 18.1765 5.24621 16.6708 6.20803 15.9002C6.68981 15.5142 7.31621 15.2777 7.96897 15.3489C8.64116 15.4221 9.25239 15.8122 9.69006 16.5097L8.64048 17.1683C8.3774 16.749 8.08273 16.6077 7.8347 16.5806C7.56724 16.5515 7.2591 16.6458 6.98279 16.8672C6.42847 17.3113 6.15456 18.1268 6.66302 18.9107C7.23496 19.7924 7.98153 20.0197 8.71229 19.9573C9.48896 19.8909 10.2469 19.4894 10.675 19.1041C11.2433 18.5927 11.5772 18.0776 11.7317 17.5406C11.8862 17.0036 11.8772 16.3897 11.6679 15.6544Z" fill="#11404F" stroke="#11404F"/>
<path fill-rule="evenodd" clip-rule="evenodd" d="M41.7489 23.3295C41.7435 24.1409 41.4619 24.9122 41.1462 25.5094C40.5338 26.6678 39.3798 27.4858 37.9846 27.8923C36.5896 28.2988 35.0042 28.2765 33.6123 27.8019C32.0678 27.2752 31.1086 26.3459 30.3203 25.1915C29.9204 24.606 29.5679 23.9674 29.2025 23.2863C29.1545 23.1969 29.1063 23.1067 29.0577 23.0158C28.7405 22.4226 28.4084 21.8013 28.035 21.1922C27.3398 20.0578 26.5371 18.949 25.5859 18.1197C24.6275 17.2841 23.4896 16.7084 22.1455 16.7084L22.1455 17.9475C23.1069 17.9475 23.967 18.3521 24.7716 19.0536C25.5835 19.7614 26.3087 20.7466 26.9786 21.8396C27.3314 22.4153 27.6449 23.0016 27.9633 23.5969C28.0122 23.6884 28.0613 23.7802 28.1106 23.8721C28.4766 24.5541 28.8562 25.2447 29.297 25.8903C30.19 27.198 31.3461 28.3383 33.2124 28.9746C34.8514 29.5335 36.6977 29.5579 38.3312 29.0819C39.9645 28.606 41.4359 27.6125 42.2416 26.0885C42.6116 25.3887 42.9808 24.4172 42.9879 23.3376C42.9951 22.2367 42.6239 21.0562 41.5679 19.9881L40.6868 20.8593C41.4991 21.6809 41.754 22.5395 41.7489 23.3295Z" fill="#11404F" stroke="#11404F"/>
<path fill-rule="evenodd" clip-rule="evenodd" d="M2.46208 23.3295C2.4674 24.1409 2.74906 24.9122 3.06475 25.5094C3.67717 26.6678 4.83115 27.4858 6.22635 27.8923C7.62134 28.2988 9.20679 28.2765 10.5987 27.8019C12.1432 27.2752 13.1023 26.3459 13.8906 25.1915C14.2905 24.606 14.643 23.9674 15.0085 23.2863C15.0564 23.1969 15.1047 23.1067 15.1532 23.0158C15.4704 22.4226 15.8026 21.8013 16.1759 21.1922C16.8711 20.0578 17.6738 18.949 18.625 18.1197C19.5834 17.2841 20.7214 16.7084 22.0654 16.7084L22.0654 17.9475C21.1041 17.9475 20.244 18.3521 19.4393 19.0536C18.6275 19.7614 17.9022 20.7466 17.2324 21.8396C16.8796 22.4153 16.566 23.0016 16.2477 23.5969C16.1987 23.6884 16.1496 23.7802 16.1003 23.8721C15.7344 24.5541 15.3547 25.2447 14.9139 25.8903C14.0209 27.198 12.8648 28.3383 10.9986 28.9746C9.35955 29.5335 7.51327 29.5579 5.87973 29.0819C4.2464 28.606 2.77503 27.6125 1.96932 26.0885C1.59936 25.3887 1.23011 24.4172 1.22303 23.3376C1.2158 22.2367 1.58699 21.0562 2.64302 19.9881L3.52413 20.8593C2.71181 21.6809 2.4569 22.5395 2.46208 23.3295Z" fill="#11404F" stroke="#11404F"/>
<path fill-rule="evenodd" clip-rule="evenodd" d="M40.3132 29.802C40.0267 30.6777 39.416 31.4093 38.8957 31.7848C36.6384 33.414 33.337 33.431 30.8873 31.7741C29.5356 30.8598 28.8545 29.7111 28.3974 28.39C28.1656 27.7199 27.9934 27.0112 27.8199 26.2579C27.7971 26.1591 27.7743 26.0593 27.7513 25.9589C27.6013 25.3032 27.4441 24.6164 27.2441 23.9306C26.8602 22.6139 26.1709 21.1511 25.32 20.0044C24.8942 19.4305 24.4134 18.9161 23.8916 18.5404C23.371 18.1657 22.7746 17.9045 22.133 17.9045L22.133 19.1436C22.4322 19.1436 22.7792 19.2664 23.1676 19.546C23.5547 19.8247 23.9483 20.2351 24.3249 20.7427C25.079 21.759 25.7071 23.0861 26.0546 24.2775C26.2436 24.9256 26.392 25.5737 26.5426 26.2317C26.5658 26.3329 26.589 26.4344 26.6124 26.5361C26.7862 27.2903 26.9709 28.0564 27.2265 28.7951C27.7442 30.2916 28.5598 31.6958 30.1931 32.8004C33.0484 34.7317 36.9178 34.7404 39.6208 32.7896C40.3382 32.2718 41.1171 31.3297 41.4908 30.1873C41.8736 29.0172 41.8324 27.6208 40.8562 26.3002L39.8598 27.0367C40.5628 27.9876 40.5906 28.9539 40.3132 29.802Z" fill="#11404F" stroke="#11404F"/>
<path fill-rule="evenodd" clip-rule="evenodd" d="M3.99544 29.801C4.28193 30.6767 4.89256 31.4083 5.41293 31.7839C7.67017 33.413 10.9716 33.43 13.4213 31.7731C14.773 30.8589 15.4541 29.7101 15.9111 28.389C16.143 27.719 16.3152 27.0102 16.4887 26.257C16.5115 26.1581 16.5343 26.0584 16.5573 25.9579C16.7073 25.3022 16.8645 24.6154 17.0645 23.9296C17.4484 22.613 18.1377 21.1501 18.9886 20.0034C19.4144 19.4295 19.8952 18.9152 20.417 18.5395C20.9376 18.1647 21.534 17.9035 22.1756 17.9035L22.1756 19.1426C21.8764 19.1426 21.5293 19.2655 21.141 19.5451C20.7539 19.8237 20.3603 20.2341 19.9837 20.7417C19.2296 21.758 18.6015 23.0851 18.254 24.2765C18.065 24.9246 17.9166 25.5727 17.766 26.2307C17.7428 26.3319 17.7196 26.4334 17.6962 26.5351C17.5224 27.2893 17.3377 28.0555 17.0821 28.7942C16.5644 30.2907 15.7488 31.6948 14.1155 32.7995C11.2602 34.7307 7.39081 34.7395 4.68778 32.7886C3.97038 32.2708 3.19154 31.3288 2.81778 30.1863C2.43501 29.0163 2.47615 27.6198 3.45239 26.2992L4.44878 27.0358C3.74583 27.9866 3.71797 28.9529 3.99544 29.801Z" fill="#11404F" stroke="#11404F"/>
<mask id="path-11-outside-1_771_30172" maskUnits="userSpaceOnUse" x="47.8965" y="6.70703" width="45" height="22" fill="black">
<rect fill="white" x="47.8965" y="6.70703" width="45" height="22"/>
<path d="M48.8965 27.8515V26.905C49.6231 26.8667 50.1203 26.7042 50.388 26.4174C50.6557 26.1114 50.7991 25.7003 50.8182 25.184C50.8564 24.6486 50.8756 24.0463 50.8756 23.3771V10.9864C50.8756 10.6039 50.8851 10.2406 50.9042 9.89644C50.9234 9.53313 50.9425 9.20806 50.9616 8.92124C50.6174 8.94036 50.2732 8.95949 49.929 8.97861C49.5849 8.99773 49.2407 9.01685 48.8965 9.03597V7.77396H55.35V8.72047C54.6425 8.73959 54.1453 8.90212 53.8585 9.20806C53.5908 9.51401 53.4378 9.92512 53.3996 10.4414C53.3805 10.9577 53.3709 11.56 53.3709 12.2484V24.553C53.3709 25.0693 53.3613 25.5091 53.3422 25.8724C53.3422 26.2357 53.3231 26.5417 53.2849 26.7902L58.6484 26.7042C59.8531 26.6851 60.7613 26.3026 61.3732 25.5569C62.0042 24.8112 62.3197 23.597 62.3197 21.9143H63.2949L63.1228 27.8515H48.8965Z"/>
<path d="M71.9319 8.72047C71.2244 8.73959 70.7272 8.90212 70.4404 9.20806C70.1727 9.51401 70.0197 9.92512 69.9815 10.4414C69.9623 10.9577 69.9528 11.56 69.9528 12.2484V24.4383C69.9528 24.9546 69.9432 25.4039 69.9241 25.7864C69.9241 26.1497 69.905 26.4556 69.8667 26.7042C70.2109 26.6851 70.5551 26.6659 70.8993 26.6468C71.2435 26.6277 71.5877 26.6086 71.9319 26.5895V27.8515H65.4784V26.905C66.205 26.8667 66.7021 26.7042 66.9698 26.4174C67.2375 26.1114 67.3809 25.7003 67.4001 25.184C67.4383 24.6486 67.4574 24.0463 67.4574 23.3771V10.9864C67.4574 10.6039 67.467 10.2406 67.4861 9.89644C67.5052 9.53313 67.5244 9.20806 67.5435 8.92124C67.1993 8.94036 66.8551 8.95949 66.5109 8.97861C66.1667 8.99773 65.8225 9.01685 65.4784 9.03597V7.77396H71.9319V8.72047Z"/>
<path d="M75.0858 27.8515V26.905C75.8124 26.8667 76.3095 26.7042 76.5772 26.4174C76.8449 26.1114 76.9884 25.7003 77.0075 25.184C77.0457 24.6486 77.0648 24.0463 77.0648 23.3771V10.9864C77.0648 10.6039 77.0744 10.2406 77.0935 9.89644C77.1126 9.53313 77.1318 9.20806 77.1509 8.92124C76.8067 8.94036 76.4625 8.95949 76.1183 8.97861C75.7741 8.99773 75.43 9.01685 75.0858 9.03597V7.77396C76.1566 7.75483 77.2369 7.73571 78.3269 7.71659C79.4359 7.69747 80.5449 7.70703 81.654 7.74527C83.5088 7.76439 85.0002 7.98429 86.1284 8.40496C87.2757 8.80651 88.117 9.38972 88.6524 10.1546C89.1878 10.9003 89.4555 11.8086 89.4555 12.8794C89.4747 13.6251 89.3312 14.39 89.0253 15.174C88.7385 15.9388 88.2031 16.6272 87.4191 17.2391C86.6542 17.851 85.5452 18.3099 84.092 18.6158C84.4744 18.8835 84.809 19.2277 85.0958 19.6484C85.3827 20.069 85.7077 20.5566 86.071 21.1112L88.0214 24.1802C88.3465 24.6964 88.662 25.1649 88.9679 25.5856C89.2739 25.9871 89.6276 26.3122 90.0292 26.5608C90.4307 26.7902 90.9279 26.905 91.5206 26.905V27.8515H87.9067C87.3522 27.3543 86.8837 26.8572 86.5013 26.36C86.138 25.8628 85.7555 25.2988 85.354 24.6678L83.4323 21.5988C83.1837 21.1972 82.8969 20.7383 82.5718 20.222C82.2659 19.6866 81.9121 19.2373 81.5106 18.874C81.2046 18.8931 80.8796 18.9026 80.5354 18.9026C80.2103 18.9026 79.8853 18.8931 79.5602 18.874V24.4383C79.5602 24.9546 79.5506 25.4039 79.5315 25.7864C79.5315 26.1497 79.5124 26.4556 79.4741 26.7042C79.7036 26.6851 79.9331 26.6755 80.1625 26.6755C80.392 26.6564 80.6214 26.6373 80.8509 26.6181C81.0803 26.599 81.3098 26.5895 81.5393 26.5895V27.8515H75.0858ZM81.3385 17.8127C82.3902 17.7745 83.308 17.6024 84.092 17.2964C84.8951 16.9905 85.5261 16.5029 85.985 15.8336C86.4439 15.1644 86.6734 14.2848 86.6734 13.1949C86.6734 12.4683 86.5682 11.8373 86.3579 11.3019C86.1666 10.7473 85.8607 10.2884 85.44 9.92512C85.0194 9.56181 84.484 9.29411 83.8338 9.12202C83.1837 8.9308 82.4188 8.8352 81.5393 8.8352C80.8318 8.8352 80.3346 8.97861 80.0478 9.26543C79.7801 9.55225 79.6271 9.9538 79.5889 10.4701C79.5697 10.9672 79.5602 11.56 79.5602 12.2484V17.7554C79.8661 17.7745 80.153 17.7936 80.4207 17.8127C80.7075 17.8318 81.0134 17.8318 81.3385 17.8127Z"/>
</mask>
<path d="M48.8965 27.8515V26.905C49.6231 26.8667 50.1203 26.7042 50.388 26.4174C50.6557 26.1114 50.7991 25.7003 50.8182 25.184C50.8564 24.6486 50.8756 24.0463 50.8756 23.3771V10.9864C50.8756 10.6039 50.8851 10.2406 50.9042 9.89644C50.9234 9.53313 50.9425 9.20806 50.9616 8.92124C50.6174 8.94036 50.2732 8.95949 49.929 8.97861C49.5849 8.99773 49.2407 9.01685 48.8965 9.03597V7.77396H55.35V8.72047C54.6425 8.73959 54.1453 8.90212 53.8585 9.20806C53.5908 9.51401 53.4378 9.92512 53.3996 10.4414C53.3805 10.9577 53.3709 11.56 53.3709 12.2484V24.553C53.3709 25.0693 53.3613 25.5091 53.3422 25.8724C53.3422 26.2357 53.3231 26.5417 53.2849 26.7902L58.6484 26.7042C59.8531 26.6851 60.7613 26.3026 61.3732 25.5569C62.0042 24.8112 62.3197 23.597 62.3197 21.9143H63.2949L63.1228 27.8515H48.8965Z" fill="#11404F"/>
<path d="M71.9319 8.72047C71.2244 8.73959 70.7272 8.90212 70.4404 9.20806C70.1727 9.51401 70.0197 9.92512 69.9815 10.4414C69.9623 10.9577 69.9528 11.56 69.9528 12.2484V24.4383C69.9528 24.9546 69.9432 25.4039 69.9241 25.7864C69.9241 26.1497 69.905 26.4556 69.8667 26.7042C70.2109 26.6851 70.5551 26.6659 70.8993 26.6468C71.2435 26.6277 71.5877 26.6086 71.9319 26.5895V27.8515H65.4784V26.905C66.205 26.8667 66.7021 26.7042 66.9698 26.4174C67.2375 26.1114 67.3809 25.7003 67.4001 25.184C67.4383 24.6486 67.4574 24.0463 67.4574 23.3771V10.9864C67.4574 10.6039 67.467 10.2406 67.4861 9.89644C67.5052 9.53313 67.5244 9.20806 67.5435 8.92124C67.1993 8.94036 66.8551 8.95949 66.5109 8.97861C66.1667 8.99773 65.8225 9.01685 65.4784 9.03597V7.77396H71.9319V8.72047Z" fill="#11404F"/>
<path d="M75.0858 27.8515V26.905C75.8124 26.8667 76.3095 26.7042 76.5772 26.4174C76.8449 26.1114 76.9884 25.7003 77.0075 25.184C77.0457 24.6486 77.0648 24.0463 77.0648 23.3771V10.9864C77.0648 10.6039 77.0744 10.2406 77.0935 9.89644C77.1126 9.53313 77.1318 9.20806 77.1509 8.92124C76.8067 8.94036 76.4625 8.95949 76.1183 8.97861C75.7741 8.99773 75.43 9.01685 75.0858 9.03597V7.77396C76.1566 7.75483 77.2369 7.73571 78.3269 7.71659C79.4359 7.69747 80.5449 7.70703 81.654 7.74527C83.5088 7.76439 85.0002 7.98429 86.1284 8.40496C87.2757 8.80651 88.117 9.38972 88.6524 10.1546C89.1878 10.9003 89.4555 11.8086 89.4555 12.8794C89.4747 13.6251 89.3312 14.39 89.0253 15.174C88.7385 15.9388 88.2031 16.6272 87.4191 17.2391C86.6542 17.851 85.5452 18.3099 84.092 18.6158C84.4744 18.8835 84.809 19.2277 85.0958 19.6484C85.3827 20.069 85.7077 20.5566 86.071 21.1112L88.0214 24.1802C88.3465 24.6964 88.662 25.1649 88.9679 25.5856C89.2739 25.9871 89.6276 26.3122 90.0292 26.5608C90.4307 26.7902 90.9279 26.905 91.5206 26.905V27.8515H87.9067C87.3522 27.3543 86.8837 26.8572 86.5013 26.36C86.138 25.8628 85.7555 25.2988 85.354 24.6678L83.4323 21.5988C83.1837 21.1972 82.8969 20.7383 82.5718 20.222C82.2659 19.6866 81.9121 19.2373 81.5106 18.874C81.2046 18.8931 80.8796 18.9026 80.5354 18.9026C80.2103 18.9026 79.8853 18.8931 79.5602 18.874V24.4383C79.5602 24.9546 79.5506 25.4039 79.5315 25.7864C79.5315 26.1497 79.5124 26.4556 79.4741 26.7042C79.7036 26.6851 79.9331 26.6755 80.1625 26.6755C80.392 26.6564 80.6214 26.6373 80.8509 26.6181C81.0803 26.599 81.3098 26.5895 81.5393 26.5895V27.8515H75.0858ZM81.3385 17.8127C82.3902 17.7745 83.308 17.6024 84.092 17.2964C84.8951 16.9905 85.5261 16.5029 85.985 15.8336C86.4439 15.1644 86.6734 14.2848 86.6734 13.1949C86.6734 12.4683 86.5682 11.8373 86.3579 11.3019C86.1666 10.7473 85.8607 10.2884 85.44 9.92512C85.0194 9.56181 84.484 9.29411 83.8338 9.12202C83.1837 8.9308 82.4188 8.8352 81.5393 8.8352C80.8318 8.8352 80.3346 8.97861 80.0478 9.26543C79.7801 9.55225 79.6271 9.9538 79.5889 10.4701C79.5697 10.9672 79.5602 11.56 79.5602 12.2484V17.7554C79.8661 17.7745 80.153 17.7936 80.4207 17.8127C80.7075 17.8318 81.0134 17.8318 81.3385 17.8127Z" fill="#11404F"/>
<path d="M48.8965 27.8515V26.905C49.6231 26.8667 50.1203 26.7042 50.388 26.4174C50.6557 26.1114 50.7991 25.7003 50.8182 25.184C50.8564 24.6486 50.8756 24.0463 50.8756 23.3771V10.9864C50.8756 10.6039 50.8851 10.2406 50.9042 9.89644C50.9234 9.53313 50.9425 9.20806 50.9616 8.92124C50.6174 8.94036 50.2732 8.95949 49.929 8.97861C49.5849 8.99773 49.2407 9.01685 48.8965 9.03597V7.77396H55.35V8.72047C54.6425 8.73959 54.1453 8.90212 53.8585 9.20806C53.5908 9.51401 53.4378 9.92512 53.3996 10.4414C53.3805 10.9577 53.3709 11.56 53.3709 12.2484V24.553C53.3709 25.0693 53.3613 25.5091 53.3422 25.8724C53.3422 26.2357 53.3231 26.5417 53.2849 26.7902L58.6484 26.7042C59.8531 26.6851 60.7613 26.3026 61.3732 25.5569C62.0042 24.8112 62.3197 23.597 62.3197 21.9143H63.2949L63.1228 27.8515H48.8965Z" stroke="#11404F" mask="url(#path-11-outside-1_771_30172)"/>
<path d="M71.9319 8.72047C71.2244 8.73959 70.7272 8.90212 70.4404 9.20806C70.1727 9.51401 70.0197 9.92512 69.9815 10.4414C69.9623 10.9577 69.9528 11.56 69.9528 12.2484V24.4383C69.9528 24.9546 69.9432 25.4039 69.9241 25.7864C69.9241 26.1497 69.905 26.4556 69.8667 26.7042C70.2109 26.6851 70.5551 26.6659 70.8993 26.6468C71.2435 26.6277 71.5877 26.6086 71.9319 26.5895V27.8515H65.4784V26.905C66.205 26.8667 66.7021 26.7042 66.9698 26.4174C67.2375 26.1114 67.3809 25.7003 67.4001 25.184C67.4383 24.6486 67.4574 24.0463 67.4574 23.3771V10.9864C67.4574 10.6039 67.467 10.2406 67.4861 9.89644C67.5052 9.53313 67.5244 9.20806 67.5435 8.92124C67.1993 8.94036 66.8551 8.95949 66.5109 8.97861C66.1667 8.99773 65.8225 9.01685 65.4784 9.03597V7.77396H71.9319V8.72047Z" stroke="#11404F" mask="url(#path-11-outside-1_771_30172)"/>
<path d="M75.0858 27.8515V26.905C75.8124 26.8667 76.3095 26.7042 76.5772 26.4174C76.8449 26.1114 76.9884 25.7003 77.0075 25.184C77.0457 24.6486 77.0648 24.0463 77.0648 23.3771V10.9864C77.0648 10.6039 77.0744 10.2406 77.0935 9.89644C77.1126 9.53313 77.1318 9.20806 77.1509 8.92124C76.8067 8.94036 76.4625 8.95949 76.1183 8.97861C75.7741 8.99773 75.43 9.01685 75.0858 9.03597V7.77396C76.1566 7.75483 77.2369 7.73571 78.3269 7.71659C79.4359 7.69747 80.5449 7.70703 81.654 7.74527C83.5088 7.76439 85.0002 7.98429 86.1284 8.40496C87.2757 8.80651 88.117 9.38972 88.6524 10.1546C89.1878 10.9003 89.4555 11.8086 89.4555 12.8794C89.4747 13.6251 89.3312 14.39 89.0253 15.174C88.7385 15.9388 88.2031 16.6272 87.4191 17.2391C86.6542 17.851 85.5452 18.3099 84.092 18.6158C84.4744 18.8835 84.809 19.2277 85.0958 19.6484C85.3827 20.069 85.7077 20.5566 86.071 21.1112L88.0214 24.1802C88.3465 24.6964 88.662 25.1649 88.9679 25.5856C89.2739 25.9871 89.6276 26.3122 90.0292 26.5608C90.4307 26.7902 90.9279 26.905 91.5206 26.905V27.8515H87.9067C87.3522 27.3543 86.8837 26.8572 86.5013 26.36C86.138 25.8628 85.7555 25.2988 85.354 24.6678L83.4323 21.5988C83.1837 21.1972 82.8969 20.7383 82.5718 20.222C82.2659 19.6866 81.9121 19.2373 81.5106 18.874C81.2046 18.8931 80.8796 18.9026 80.5354 18.9026C80.2103 18.9026 79.8853 18.8931 79.5602 18.874V24.4383C79.5602 24.9546 79.5506 25.4039 79.5315 25.7864C79.5315 26.1497 79.5124 26.4556 79.4741 26.7042C79.7036 26.6851 79.9331 26.6755 80.1625 26.6755C80.392 26.6564 80.6214 26.6373 80.8509 26.6181C81.0803 26.599 81.3098 26.5895 81.5393 26.5895V27.8515H75.0858ZM81.3385 17.8127C82.3902 17.7745 83.308 17.6024 84.092 17.2964C84.8951 16.9905 85.5261 16.5029 85.985 15.8336C86.4439 15.1644 86.6734 14.2848 86.6734 13.1949C86.6734 12.4683 86.5682 11.8373 86.3579 11.3019C86.1666 10.7473 85.8607 10.2884 85.44 9.92512C85.0194 9.56181 84.484 9.29411 83.8338 9.12202C83.1837 8.9308 82.4188 8.8352 81.5393 8.8352C80.8318 8.8352 80.3346 8.97861 80.0478 9.26543C79.7801 9.55225 79.6271 9.9538 79.5889 10.4701C79.5697 10.9672 79.5602 11.56 79.5602 12.2484V17.7554C79.8661 17.7745 80.153 17.7936 80.4207 17.8127C80.7075 17.8318 81.0134 17.8318 81.3385 17.8127Z" stroke="#11404F" mask="url(#path-11-outside-1_771_30172)"/>
</svg>
